<?xml version="1.0" encoding="UTF-8" standalone="no"?>
<!-- Created with Inkscape (http://www.inkscape.org/) -->

<svg
   width="1800"
   height="560"
   viewBox="0 0 476.24999 148.16667"
   version="1.1"
   id="svg5"
   inkscape:version="1.2.1 (2ed6d7ae0b, 2022-08-22, custom)"
   sodipodi:docname="bowserbanner.svg"
   inkscape:export-filename="../5e9e28a7/broswer.png"
   inkscape:export-xdpi="96"
   inkscape:export-ydpi="96"
   xmlns:inkscape="http://www.inkscape.org/namespaces/inkscape"
   xmlns:sodipodi="http://sodipodi.sourceforge.net/DTD/sodipodi-0.dtd"
   xmlns="http://www.w3.org/2000/svg"
   xmlns:svg="http://www.w3.org/2000/svg">
  <sodipodi:namedview
     id="namedview7"
     pagecolor="#ffffff"
     bordercolor="#999999"
     borderopacity="1"
     inkscape:showpageshadow="0"
     inkscape:pageopacity="0"
     inkscape:pagecheckerboard="0"
     inkscape:deskcolor="#d1d1d1"
     inkscape:document-units="mm"
     showgrid="false"
     inkscape:zoom="0.2102413"
     inkscape:cx="-535.09943"
     inkscape:cy="563.63806"
     inkscape:window-width="1366"
     inkscape:window-height="704"
     inkscape:window-x="0"
     inkscape:window-y="27"
     inkscape:window-maximized="1"
     inkscape:current-layer="layer1" />
  <defs
     id="defs2" />
  <g
     inkscape:label="Layer 1"
     inkscape:groupmode="layer"
     id="layer1">
    <path
       sodipodi:type="spiral"
       style="fill:#204a87;fill-opacity:0.99847;fill-rule:evenodd;stroke:#000000;stroke-width:0.264583"
       id="path1014"
       sodipodi:cx="-328.70358"
       sodipodi:cy="-21.559019"
       sodipodi:expansion="1.53"
       sodipodi:revolution="5.8770938"
       sodipodi:radius="98.111801"
       sodipodi:argument="-33.722725"
       sodipodi:t0="0.56851602"
       d="m -287.9004,-28.26267 c 5.62158,23.4187363 -10.25901,46.85748 -33.31706,52.269509 -26.06017,6.116667 -52.08444,-11.58425 -57.99377,-37.267839 -6.6258,-28.797606 12.96348,-57.500656 41.36922,-63.920976 31.62817,-7.148658 63.10042,14.394902 70.04515,45.616448 7.68492,34.5492098 -15.8769,68.878527 -50.00522,76.360828 -37.55832,8.234297 -74.83021,-17.40801 -82.86298,-54.5315992 -8.79652,-40.6532928 18.98687,-80.9510858 59.19198,-89.5469838 43.83204,-9.371347 87.23708,20.612242 96.40854,63.983008 9.95852,47.092681 -22.28298,93.684452 -68.90162,103.443687 -50.43341,10.557826 -100.28966,-23.998033 -110.64868,-73.9449451 -1.49135,-7.1906839 -2.16391,-14.5486739 -2.00866,-21.8905539"
       transform="matrix(0,-0.36233931,0.36233931,0,93.152242,-71.748348)" />
  </g>
</svg>
